# xmcd
#
# Track frame offsets:
#	150
#	21367
#	40576
#	56869
#	73465
#	91382
#	105982
#	122261
#	141567
#	159395
#	181091
#	198676
#	213210
#	231967
#	256606
#	276425
#
# Disc length: 3958 seconds
#
# Revision: 0
# Processed by: cddbd v1.5.2PL0 Copyright (c) Steve Scherf et al.
# Submitted via: EasyCDDAExtractor 15.2.0.1
#
DISCID=e60f7410
DTITLE=Sezen Aksu - Biraz Pop Biraz Sezen
DYEAR=2017
DGENRE=
TTITLE0=Isyanci
TTITLE1=Baba Evi
TTITLE2=Ihanetten Geri Kalan
TTITLE3=Hakkimda Konusmussun
TTITLE4=Canimsin Sen
TTITLE5=Manifesto
TTITLE6=Köz
TTITLE7=Kördügüm
TTITLE8=Ey Benim Cocuklugum
TTITLE9=Ben Kedim Yatagim
TTITLE10=Hu Hu
TTITLE11=Üfle De Söneyim
TTITLE12=Koca Kicli
TTITLE13=Benim Karanlik Yanim
TTITLE14=Günaydin Memur Bey
TTITLE15=Göc
EXTD=
EXTT0=
EXTT1=
EXTT2=
EXTT3=
EXTT4=
EXTT5=
EXTT6=
EXTT7=
EXTT8=
EXTT9=
EXTT10=
EXTT11=
EXTT12=
EXTT13=
EXTT14=
EXTT15=
PLAYORDER=
